<svg width="1368" height="109" viewBox="0 0 1368 109" fill="none" xmlns="http://www.w3.org/2000/svg">
<path d="M274.057 79.5024C271.787 88.588 269.584 97.2661 267.336 106.119C260.379 106.119 253.63 106.119 246.596 106.119C240.352 81.3098 234.127 56.5775 227.903 31.8452C227.638 31.8728 227.374 31.9005 227.11 31.9281C227.11 56.5224 227.11 81.1167 227.11 106.035C220.284 106.035 213.893 106.035 207.232 106.035C207.232 71.8114 207.232 37.5651 207.232 2.95119C217.57 2.95119 227.964 2.95119 238.726 2.95119C244.652 25.1466 250.61 47.4637 256.569 69.7807C256.917 69.7524 257.266 69.724 257.614 69.6957C263.474 47.464 269.334 25.2323 275.24 2.82812C285.792 2.82812 296.196 2.82812 306.833 2.82812C306.833 37.3159 306.833 71.5606 306.833 106.084C300.402 106.084 294.006 106.084 287.234 106.084C287.234 81.249 287.234 56.508 287.234 31.7671C286.892 31.7099 286.549 31.6527 286.207 31.5956C282.179 47.4286 278.151 63.2617 274.057 79.5024Z" fill="white"/>
<path d="M512.051 45.2535C515.823 30.8839 519.527 16.9184 523.274 2.79297C533.694 2.79297 543.976 2.79297 554.662 2.79297C554.662 37.1388 554.662 71.4911 554.662 106.103C548.36 106.103 541.966 106.103 535.188 106.103C535.188 81.2267 535.188 56.506 535.188 31.7853C534.849 31.7307 534.509 31.6761 534.17 31.6214C527.93 56.3213 521.69 81.0211 515.374 106.023C508.581 106.023 501.838 106.023 494.586 106.023C488.381 81.3998 482.119 56.5533 475.857 31.7067C475.546 31.7506 475.235 31.7945 474.924 31.8384C474.924 56.5199 474.924 81.2014 474.924 106.119C468.24 106.119 461.966 106.119 455.33 106.119C455.33 71.8761 455.33 37.5128 455.33 2.86575C465.594 2.86575 475.856 2.86575 486.701 2.86575C492.612 25.0092 498.575 47.3474 504.538 69.6856C504.88 69.701 505.223 69.7165 505.565 69.7319C507.705 61.7071 509.845 53.6823 512.051 45.2535Z" fill="white"/>
<path d="M958.919 2.56264C961.375 2.56273 963.347 2.56273 965.689 2.56273C965.689 37.1716 965.689 71.3891 965.689 105.984C959.445 105.984 953.071 105.984 946.179 105.984C946.179 81.0744 946.179 56.2421 946.179 31.4096C945.87 31.3757 945.562 31.3417 945.254 31.3077C941.195 47.3622 937.135 63.4164 933.078 79.4714C931.081 87.3717 929.227 95.3128 926.965 103.136C926.58 104.468 924.466 105.303 923.135 106.349C923.032 106.43 922.811 106.362 922.644 106.36C917.157 106.279 910.171 108.204 906.611 105.544C903.142 102.952 903.041 95.7039 901.696 90.44C896.684 70.8185 891.768 51.1724 886.029 31.5764C886.029 56.3124 886.029 81.0484 886.029 106.069C879.198 106.069 872.947 106.069 866.332 106.069C866.332 71.8357 866.332 37.6131 866.332 2.5625C873.651 2.5625 881.068 2.5625 888.485 2.5625C897.71 2.5625 897.68 2.57057 900.048 11.5356C904.76 29.3803 909.505 47.2166 914.255 65.0516C914.629 66.4566 915.141 67.8247 916.65 69.3763C922.509 47.226 928.368 25.0756 934.323 2.56256C942.488 2.56256 950.462 2.56256 958.919 2.56264Z" fill="#FF4444"/>
<path d="M668.549 34.5285C666.785 42.018 662.367 46.9764 655.908 50.8977C656.899 51.472 657.612 51.9727 658.393 52.324C670.018 57.5581 675.374 67.0834 674.001 80.1226C672.758 91.9228 664.093 101.957 652.885 104.521C650.78 105.003 648.644 105.676 646.519 105.686C626.908 105.776 607.296 105.739 587.436 105.739C587.436 71.6859 587.436 37.4488 587.436 3.17667C588.031 2.95296 588.482 2.63228 588.93 2.63677C606.918 2.81757 624.923 2.61949 642.889 3.34987C660.599 4.06979 670.688 16.5885 668.549 34.5285ZM651.319 70.9361C649.879 66.3743 646.554 63.1447 642.133 62.7299C631.126 61.6973 620.042 61.4838 608.952 60.9397C608.952 70.6685 608.952 79.2835 608.952 88.0307C619.399 88.0307 629.714 88.5914 639.937 87.8631C649.012 87.2165 652.779 81.2399 651.319 70.9361ZM645.572 24.4225C642.73 23.1774 639.934 21.0036 637.037 20.8588C627.786 20.3964 618.497 20.6873 609.14 20.6873C609.14 28.3697 609.14 35.8883 609.14 43.5589C615.316 43.5589 621.128 43.5768 626.941 43.5512C629.769 43.5387 632.605 43.5577 635.424 43.368C646.405 42.629 651.117 34.4428 645.572 24.4225Z" fill="white"/>
<path d="M1161.3 3.92726C1176.89 7.31079 1185.42 17.7888 1189.85 31.6341C1194.62 46.5271 1194.74 61.8673 1190.13 76.9013C1184.51 95.1984 1172.38 105.104 1153.34 106.019C1137.89 106.761 1122.38 106.169 1106.49 106.169C1106.49 71.8064 1106.49 37.473 1106.49 2C1124.75 2.60649 1142.83 3.20667 1161.3 3.92726ZM1127.65 60.8568C1127.65 69.9209 1127.65 78.985 1127.65 88.3538C1133.63 88.3538 1138.77 88.3718 1143.91 88.3453C1146.07 88.3341 1148.25 88.3654 1150.39 88.1436C1161.08 87.0389 1166.53 82.405 1169.14 71.8979C1171.78 61.2366 1171.8 50.4225 1169.7 39.706C1167.57 28.8528 1160.54 22.1734 1150.74 21.3843C1144.45 20.8768 1138.11 20.9717 1131.8 20.5635C1128.42 20.3446 1127.56 21.7236 1127.6 24.897C1127.74 36.5487 1127.65 48.2033 1127.65 60.8568Z" fill="#FF4444"/>
<path d="M1017.03 2.55869C1036.49 2.55878 1055.45 2.55878 1074.78 2.55878C1074.78 8.70708 1074.78 14.4357 1074.78 20.7076C1056.67 20.7076 1038.58 20.7076 1020.12 20.7076C1020.12 28.2805 1020.12 35.3185 1020.12 42.8452C1037.2 42.8452 1053.96 42.8452 1071.06 42.8452C1071.06 49.0459 1071.06 54.7621 1071.06 60.9663C1054.05 60.9663 1037.3 60.9663 1020.15 60.9663C1020.15 70.1731 1020.15 78.9075 1020.15 88.1194C1038.8 88.1194 1057.56 88.1194 1076.72 88.1194C1076.72 94.2856 1076.72 99.995 1076.72 106.038C1050.73 106.038 1024.69 106.038 998.408 106.038C998.408 71.5959 998.408 37.3783 998.408 2.55859C1004.63 2.55859 1010.58 2.55859 1017.03 2.55869Z" fill="#FF4444"/>
<path d="M432.312 104.894C431 105.635 429.584 106.287 428.156 106.314C422.009 106.431 415.858 106.364 409.517 106.364C406.913 99.5576 404.31 92.945 401.871 86.2722C401.032 83.9776 399.913 82.9147 397.242 82.9534C385.921 83.1175 374.595 83.0952 363.273 82.9687C360.669 82.9396 359.505 83.7893 358.676 86.2991C356.495 92.9083 353.944 99.3957 351.466 106.136C344.056 106.136 336.635 106.136 328.613 106.136C332.153 97.0327 335.568 88.2566 338.979 79.479C348.416 55.1936 357.905 30.9281 367.221 6.59646C368.423 3.456 369.971 2.24998 373.388 2.49577C378.193 2.84129 383.052 2.78869 387.865 2.50619C390.757 2.33637 391.944 3.53655 392.928 6.01682C405.971 38.8694 419.096 71.6894 432.312 104.894ZM390.141 55.6934C386.888 46.9175 383.636 38.1416 379.922 28.1214C375.206 41.137 370.974 52.8167 366.661 64.7194C375.879 64.7194 384.388 64.7194 393.479 64.7194C392.336 61.6276 391.375 59.0275 390.141 55.6934Z" fill="white"/>
<path d="M786.968 106.362C782.324 106.362 778.163 106.362 773.567 106.362C771.073 99.9302 768.408 93.542 766.15 87.0129C765.132 84.0696 763.807 82.869 760.529 82.936C749.533 83.1604 738.529 83.1243 727.532 82.951C724.678 82.906 723.459 83.8656 722.58 86.5246C720.4 93.1175 717.862 99.5922 715.438 106.195C707.939 106.195 700.637 106.195 692.922 106.195C693.375 104.654 693.68 103.251 694.194 101.928C706.528 70.1908 718.919 38.4754 731.182 6.71049C732.356 3.66968 733.746 2.21438 737.275 2.48502C742.246 2.86622 747.278 2.40299 752.261 2.69459C753.688 2.7781 755.825 3.90261 756.305 5.08878C769.708 38.1871 782.941 71.3543 796.186 104.517C796.362 104.957 796.334 105.48 796.455 106.362C793.376 106.362 790.414 106.362 786.968 106.362ZM731.132 63.2156C731.484 63.8186 731.831 64.9437 732.191 64.9481C740.414 65.0475 748.639 65.0247 757.633 65.0247C753.019 52.6137 748.689 40.9658 743.94 28.1914C739.449 40.4593 735.428 51.4461 731.132 63.2156Z" fill="white"/>
<path d="M1359.42 84.8756C1362.28 92.0027 1364.96 98.7825 1367.96 106.34C1360.25 106.34 1353.18 106.453 1346.12 106.208C1345.15 106.175 1343.87 104.514 1343.38 103.338C1341.1 97.8037 1338.92 92.2169 1336.96 86.5636C1336.06 83.9796 1334.76 82.9568 1331.92 82.9996C1320.93 83.1654 1309.93 83.1559 1298.93 83.0071C1295.99 82.9673 1294.43 83.7999 1293.49 86.736C1291.68 92.4369 1289.57 98.0541 1287.29 103.589C1286.81 104.769 1285.13 106.189 1283.95 106.236C1277.48 106.494 1270.99 106.359 1263.74 106.359C1264.46 104.239 1264.96 102.579 1265.58 100.97C1277.75 69.6513 1289.99 38.3564 1302.06 6.99666C1303.32 3.71887 1304.83 2.1983 1308.52 2.48495C1314.46 2.94673 1321.77 0.889694 1326.02 3.68025C1330.04 6.32446 1330.92 13.8106 1333.09 19.2061C1341.83 40.972 1350.54 62.753 1359.42 84.8756ZM1323.01 49.8347C1320.48 43.0738 1317.96 36.313 1314.91 28.153C1310.18 41.2068 1305.98 52.7811 1301.69 64.6349C1310.93 64.6349 1319.41 64.6349 1328.48 64.6349C1326.58 59.5462 1324.91 55.0629 1323.01 49.8347Z" fill="#FF4444"/>
<path d="M1243.01 15.3683C1243.01 45.8096 1243.01 75.7528 1243.01 106.026C1235.9 106.026 1229.15 106.026 1221.95 106.026C1221.95 71.7655 1221.95 37.448 1221.95 2.84766C1228.91 2.84766 1235.65 2.84766 1243.01 2.84766C1243.01 6.99193 1243.01 10.9311 1243.01 15.3683Z" fill="#FF4444"/>
<path d="M21.0343 0.0247421C27.8608 0.0252761 34.1885 -0.0327533 40.5147 0.0440597C45.9726 0.110329 47.9766 2.11897 48.0107 7.66625C48.0783 18.6549 48.0862 29.6447 48.005 40.6332C47.9663 45.8653 45.91 47.9606 40.7655 47.9986C29.6105 48.0808 18.4541 48.0808 7.29913 47.9986C2.15406 47.9607 0.097375 45.8657 0.058664 40.6342C-0.022635 29.6457 -0.0145627 18.6559 0.0529573 7.66723C0.0870613 2.11942 2.09074 0.132576 7.54806 0.0408706C11.8759 -0.0318674 16.2059 0.0252761 21.0343 0.0247421Z" fill="#FF4444"/>
<path d="M74.0889 48.0261C60.0302 48.0259 60.0301 48.0259 60.0302 34.4453C60.0302 25.6198 59.9888 16.794 60.0454 7.96887C60.0833 2.06707 62.0053 0.0739385 67.7461 0.0428115C78.5696 -0.0158435 89.3937 -0.0120738 100.217 0.0409652C106.009 0.0693622 107.982 2.04289 108.014 7.87049C108.072 18.6939 108.078 29.5182 108.01 40.3415C107.974 46.0753 105.959 47.98 100.056 48.0132C91.5639 48.061 83.0712 48.0259 74.0889 48.0261Z" fill="#FF4444"/>
<path d="M28.0265 60.0278C32.5215 60.0284 36.5185 59.9736 40.5134 60.0429C45.8057 60.1347 47.9531 62.0735 47.9968 67.1696C48.0941 78.4909 48.0442 89.8136 48.015 101.136C48.0035 105.576 45.7411 107.99 41.2643 108.008C29.7758 108.055 18.2869 108.055 6.79848 108.008C2.3219 107.99 0.0585224 105.577 0.0469864 101.137C0.0175674 89.8145 -0.032176 78.4918 0.065007 67.1705C0.108754 62.0741 2.25586 60.1062 7.5476 60.0472C14.2069 59.9729 20.8676 60.0283 28.0265 60.0278Z" fill="#FF4444"/>
<path d="M60.0493 66.5655C60.5115 61.5317 63.3372 59.9857 67.6055 60.0081C78.6007 60.0656 89.5968 59.978 100.592 60.0492C105.839 60.0831 107.958 62.1107 108.001 67.2519C108.093 78.4132 108.09 89.5764 108.002 100.738C107.962 105.918 105.87 107.966 100.655 108.002C89.6601 108.078 78.664 108.069 67.6688 108.008C62.1304 107.977 60.0927 105.988 60.0561 100.498C59.9818 89.3362 60.0353 78.1738 60.0493 66.5655Z" fill="#FF4444"/>
</svg>
